{
  "accessors": [
    {
      "bufferView": 2,
      "componentType": 5126,
      "count": 1435,
      "max": [
        0.79676598310470581,
        0.38099101185798645,
        1
      ],
      "min": [
        -0.16786199808120728,
        -0.38099101185798645,
        -0.97908401489257812
      ],
      "type": "VEC3"
    },
    {
      "bufferView": 2,
      "byteOffset": 17220,
      "componentType": 5126,
      "count": 1435,
      "max": [
        1,
        1,
        1
      ],
      "min": [
        -1,
        -1,
        -1
      ],
      "type": "VEC3"
    },
    {
      "bufferView": 3,
      "componentType": 5126,
      "count": 1435,
      "max": [
        1,
        1,
        1,
        1
      ],
      "min": [
        -1,
        -1,
        -1,
        -1
      ],
      "type": "VEC4"
    },
    {
      "bufferView": 1,
      "componentType": 5126,
      "count": 1435,
      "max": [
        0.87986201047897339,
        0.99000000953674316
      ],
      "min": [
        0.0099999997764825821,
        0.058152001351118088
      ],
      "type": "VEC2"
    },
    {
      "bufferView": 0,
      "componentType": 5125,
      "count": 4176,
      "max": [
        1434
      ],
      "min": [
        0
      ],
      "type": "SCALAR"
    },
    {
      "bufferView": 2,
      "byteOffset": 34440,
      "componentType": 5126,
      "count": 291,
      "max": [
        0.80369299650192261,
        0.37606900930404663,
        0.91525399684906006
      ],
      "min": [
        0.68619602918624878,
        -0.37699198722839355,
        -0.86995697021484375
      ],
      "type": "VEC3"
    },
    {
      "bufferView": 2,
      "byteOffset": 37932,
      "componentType": 5126,
      "count": 291,
      "max": [
        1,
        0.88740664720535278,
        0.91916054487228394
      ],
      "min": [
        -0.99999165534973145,
        -1,
        -0.76483339071273804
      ],
      "type": "VEC3"
    },
    {
      "bufferView": 3,
      "byteOffset": 22960,
      "componentType": 5126,
      "count": 291,
      "max": [
        1,
        0.99998891353607178,
        0.99502778053283691,
        1
      ],
      "min": [
        -0.93828064203262329,
        -1,
        -0.99733531475067139,
        -1
      ],
      "type": "VEC4"
    },
    {
      "bufferView": 1,
      "byteOffset": 11480,
      "componentType": 5126,
      "count": 291,
      "max": [
        0.6196330189704895,
        0.99000000953674316
      ],
      "min": [
        0.0099999997764825821,
        0.11554499715566635
      ],
      "type": "VEC2"
    },
    {
      "bufferView": 0,
      "byteOffset": 16704,
      "componentType": 5125,
      "count": 1422,
      "max": [
        290
      ],
      "min": [
        0
      ],
      "type": "SCALAR"
    },
    {
      "bufferView": 2,
      "byteOffset": 41424,
      "componentType": 5126,
      "count": 192,
      "max": [
        0.76699399948120117,
        0.38077199459075928,
        0.92167699337005615
      ],
      "min": [
        0.65359401702880859,
        -0.38099101185798645,
        -0.87958401441574097
      ],
      "type": "VEC3"
    },
    {
      "bufferView": 2,
      "byteOffset": 43728,
      "componentType": 5126,
      "count": 192,
      "max": [
        1,
        0.99505078792572021,
        0.99950927495956421
      ],
      "min": [
        -1,
        -0.99452465772628784,
        -1
      ],
      "type": "VEC3"
    },
    {
      "bufferView": 3,
      "byteOffset": 27616,
      "componentType": 5126,
      "count": 192,
      "max": [
        0.99999970197677612,
        0.9857105016708374,
        0.99849545955657959,
        1
      ],
      "min": [
        -0.037345867604017258,
        -0.99972409009933472,
        -0.99822133779525757,
        1
      ],
      "type": "VEC4"
    },
    {
      "bufferView": 1,
      "byteOffset": 13808,
      "componentType": 5126,
      "count": 192,
      "max": [
        0.70307999849319458,
        0.98997902870178223
      ],
      "min": [
        0.61497998237609863,
        0.21026100218296051
      ],
      "type": "VEC2"
    },
    {
      "bufferView": 0,
      "byteOffset": 22392,
      "componentType": 5125,
      "count": 540,
      "max": [
        191
      ],
      "min": [
        0
      ],
      "type": "SCALAR"
    },
    {
      "bufferView": 2,
      "byteOffset": 46032,
      "componentType": 5126,
      "count": 156,
      "max": [
        -0.1438090056180954,
        0.04680740088224411,
        0.99733501672744751
      ],
      "min": [
        -0.80369299650192261,
        -0.1810310035943985,
        -1
      ],
      "type": "VEC3"
    },
    {
      "bufferView": 2,
      "byteOffset": 47904,
      "componentType": 5126,
      "count": 156,
      "max": [
        1,
        0.71179372072219849,
        1
      ],
      "min": [
        -0.89569765329360962,
        -0.74598801136016846,
        -1
      ],
      "type": "VEC3"
    },
    {
      "bufferView": 3,
      "byteOffset": 30688,
      "componentType": 5126,
      "count": 156,
      "max": [
        0.99730032682418823,
        0.71231657266616821,
        0.94504249095916748,
        1
      ],
      "min": [
        -0.83666408061981201,
        -0.9822235107421875,
        -1,
        1
      ],
      "type": "VEC4"
    },
    {
      "bufferView": 1,
      "byteOffset": 15344,
      "componentType": 5126,
      "count": 156,
      "max": [
        0.99000000953674316,
        0.94699698686599731
      ],
      "min": [
        0.031114000827074051,
        0.10062699764966965
      ],
      "type": "VEC2"
    },
    {
      "bufferView": 0,
      "byteOffset": 24552,
      "componentType": 5125,
      "count": 516,
      "max": [
        155
      ],
      "min": [
        0
      ],
      "type": "SCALAR"
    },
    {
      "bufferView": 2,
      "byteOffset": 49776,
      "componentType": 5126,
      "count": 110,
      "max": [
        0.70504599809646606,
        0.032336100935935974,
        0.16053600609302521
      ],
      "min": [
        0.59691697359085083,
        -0.14805899560451508,
        -0.1178319975733757
      ],
      "type": "VEC3"
    },
    {
      "bufferView": 2,
      "byteOffset": 51096,
      "componentType": 5126,
      "count": 110,
      "max": [
        0.98638719320297241,
        0.85251891613006592,
        0.9339175820350647
      ],
      "min": [
        -0.96400344371795654,
        -0.97980183362960815,
        -0.92531478404998779
      ],
      "type": "VEC3"
    },
    {
      "bufferView": 3,
      "byteOffset": 33184,
      "componentType": 5126,
      "count": 110,
      "max": [
        0.96742516756057739,
        0.94397944211959839,
        0.99627387523651123,
        1
      ],
      "min": [
        -0.97236371040344238,
        -0.96142810583114624,
        -0.82081383466720581,
        1
      ],
      "type": "VEC4"
    },
    {
      "bufferView": 1,
      "byteOffset": 16592,
      "componentType": 5126,
      "count": 110,
      "max": [
        0.43750199675559998,
        0.99000000953674316
      ],
      "min": [
        0.0099999997764825821,
        0.42083999514579773
      ],
      "type": "VEC2"
    },
    {
      "bufferView": 0,
      "byteOffset": 26616,
      "componentType": 5125,
      "count": 330,
      "max": [
        109
      ],
      "min": [
        0
      ],
      "type": "SCALAR"
    }
  ],
  "asset": {
    "extras": {
      "author": "apetrova.hanna (https://sketchfab.com/apetrova.hanna)",
      "license": "CC-BY-4.0 (http://creativecommons.org/licenses/by/4.0/)",
      "source": "https://sketchfab.com/models/7b87a4420fae44a0875dcb4fd0ad6aa0",
      "title": "Sunglasses"
    },
    "generator": "Sketchfab-3.42.2",
    "version": "2.0"
  },
  "bufferViews": [
    {
      "buffer": 0,
      "byteLength": 27936,
      "byteOffset": 0,
      "name": "floatBufferViews",
      "target": 34963
    },
    {
      "buffer": 0,
      "byteLength": 17472,
      "byteOffset": 27936,
      "byteStride": 8,
      "name": "floatBufferViews",
      "target": 34962
    },
    {
      "buffer": 0,
      "byteLength": 52416,
      "byteOffset": 45408,
      "byteStride": 12,
      "name": "floatBufferViews",
      "target": 34962
    },
    {
      "buffer": 0,
      "byteLength": 34944,
      "byteOffset": 97824,
      "byteStride": 16,
      "name": "floatBufferViews",
      "target": 34962
    }
  ],
  "buffers": [
    {
      "byteLength": 132768,
      "uri": "scene.bin"
    }
  ],
  "images": [
    {
      "uri": "textures/kozha_metallicRoughness.png"
    },
    {
      "uri": "textures/kozha_baseColor.jpeg"
    },
    {
      "uri": "textures/kozha_normal.png"
    },
    {
      "uri": "textures/kozha_emissive.jpeg"
    },
    {
      "uri": "textures/rezina_metallicRoughness.png"
    },
    {
      "uri": "textures/rezina_normal.png"
    },
    {
      "uri": "textures/rezina_emissive.jpeg"
    },
    {
      "uri": "textures/Plastik_metallicRoughness.png"
    },
    {
      "uri": "textures/Plastik_baseColor.jpeg"
    },
    {
      "uri": "textures/Plastik_normal.png"
    },
    {
      "uri": "textures/Plastik_emissive.jpeg"
    },
    {
      "uri": "textures/stekla_metallicRoughness.png"
    },
    {
      "uri": "textures/stekla_baseColor.png"
    },
    {
      "uri": "textures/stekla_normal.png"
    },
    {
      "uri": "textures/stekla_emissive.jpeg"
    },
    {
      "uri": "textures/zoloto_metallicRoughness.png"
    },
    {
      "uri": "textures/zoloto_baseColor.jpeg"
    },
    {
      "uri": "textures/zoloto_normal.png"
    },
    {
      "uri": "textures/zoloto_emissive.jpeg"
    }
  ],
  "materials": [
    {
      "doubleSided": true,
      "emissiveFactor": [
        1,
        1,
        1
      ],
      "emissiveTexture": {
        "index": 18,
        "texCoord": 0
      },
      "name": "zoloto",
      "normalTexture": {
        "index": 17,
        "scale": 1,
        "texCoord": 0
      },
      "occlusionTexture": {
        "index": 15,
        "strength": 1,
        "texCoord": 0
      },
      "pbrMetallicRoughness": {
        "baseColorFactor": [
          1,
          1,
          1,
          1
        ],
        "baseColorTexture": {
          "index": 16,
          "texCoord": 0
        },
        "metallicFactor": 1,
        "metallicRoughnessTexture": {
          "index": 15,
          "texCoord": 0
        },
        "roughnessFactor": 1
      }
    },
    {
      "alphaMode": "BLEND",
      "doubleSided": true,
      "emissiveFactor": [
        1,
        1,
        1
      ],
      "emissiveTexture": {
        "index": 14,
        "texCoord": 0
      },
      "name": "stekla",
      "normalTexture": {
        "index": 13,
        "scale": 1,
        "texCoord": 0
      },
      "occlusionTexture": {
        "index": 11,
        "strength": 1,
        "texCoord": 0
      },
      "pbrMetallicRoughness": {
        "baseColorFactor": [
          1,
          1,
          1,
          1
        ],
        "baseColorTexture": {
          "index": 12,
          "texCoord": 0
        },
        "metallicFactor": 1,
        "metallicRoughnessTexture": {
          "index": 11,
          "texCoord": 0
        },
        "roughnessFactor": 1
      }
    },
    {
      "doubleSided": true,
      "emissiveFactor": [
        1,
        1,
        1
      ],
      "emissiveTexture": {
        "index": 3,
        "texCoord": 0
      },
      "name": "kozha",
      "normalTexture": {
        "index": 2,
        "scale": 1,
        "texCoord": 0
      },
      "occlusionTexture": {
        "index": 0,
        "strength": 1,
        "texCoord": 0
      },
      "pbrMetallicRoughness": {
        "baseColorFactor": [
          1,
          1,
          1,
          1
        ],
        "baseColorTexture": {
          "index": 1,
          "texCoord": 0
        },
        "metallicFactor": 1,
        "metallicRoughnessTexture": {
          "index": 0,
          "texCoord": 0
        },
        "roughnessFactor": 1
      }
    },
    {
      "doubleSided": true,
      "emissiveFactor": [
        1,
        1,
        1
      ],
      "emissiveTexture": {
        "index": 10,
        "texCoord": 0
      },
      "name": "Plastik",
      "normalTexture": {
        "index": 9,
        "scale": 1,
        "texCoord": 0
      },
      "occlusionTexture": {
        "index": 7,
        "strength": 1,
        "texCoord": 0
      },
      "pbrMetallicRoughness": {
        "baseColorFactor": [
          1,
          1,
          1,
          1
        ],
        "baseColorTexture": {
          "index": 8,
          "texCoord": 0
        },
        "metallicFactor": 1,
        "metallicRoughnessTexture": {
          "index": 7,
          "texCoord": 0
        },
        "roughnessFactor": 1
      }
    },
    {
      "alphaMode": "BLEND",
      "doubleSided": true,
      "emissiveFactor": [
        1,
        1,
        1
      ],
      "emissiveTexture": {
        "index": 6,
        "texCoord": 0
      },
      "name": "rezina",
      "normalTexture": {
        "index": 5,
        "scale": 1,
        "texCoord": 0
      },
      "occlusionTexture": {
        "index": 4,
        "strength": 1,
        "texCoord": 0
      },
      "pbrMetallicRoughness": {
        "baseColorFactor": [
          0.7057744131,
          0.6987517405,
          0.6987517405,
          0.080962064799999997
        ],
        "metallicFactor": 1,
        "metallicRoughnessTexture": {
          "index": 4,
          "texCoord": 0
        },
        "roughnessFactor": 1
      }
    }
  ],
  "meshes": [
    {
      "name": "defaultMaterial",
      "primitives": [
        {
          "attributes": {
            "NORMAL": 1,
            "POSITION": 0,
            "TANGENT": 2,
            "TEXCOORD_0": 3
          },
          "indices": 4,
          "material": 0,
          "mode": 4
        }
      ]
    },
    {
      "name": "defaultMaterial",
      "primitives": [
        {
          "attributes": {
            "NORMAL": 6,
            "POSITION": 5,
            "TANGENT": 7,
            "TEXCOORD_0": 8
          },
          "indices": 9,
          "material": 1,
          "mode": 4
        }
      ]
    },
    {
      "name": "defaultMaterial",
      "primitives": [
        {
          "attributes": {
            "NORMAL": 11,
            "POSITION": 10,
            "TANGENT": 12,
            "TEXCOORD_0": 13
          },
          "indices": 14,
          "material": 2,
          "mode": 4
        }
      ]
    },
    {
      "name": "defaultMaterial",
      "primitives": [
        {
          "attributes": {
            "NORMAL": 16,
            "POSITION": 15,
            "TANGENT": 17,
            "TEXCOORD_0": 18
          },
          "indices": 19,
          "material": 3,
          "mode": 4
        }
      ]
    },
    {
      "name": "defaultMaterial",
      "primitives": [
        {
          "attributes": {
            "NORMAL": 21,
            "POSITION": 20,
            "TANGENT": 22,
            "TEXCOORD_0": 23
          },
          "indices": 24,
          "material": 4,
          "mode": 4
        }
      ]
    }
  ],
  "nodes": [
    {
      "children": [
        1
      ],
      "name": "RootNode (gltf orientation matrix)",
      "rotation": [
        -0.70710678118654746,
        -0,
        -0,
        0.70710678118654757
      ]
    },
    {
      "children": [
        2
      ],
      "name": "RootNode (model correction matrix)"
    },
    {
      "children": [
        3
      ],
      "matrix": [
        1,
        0,
        0,
        0,
        0,
        -4.3711390063094768e-08,
        0.999999999999999,
        0,
        0,
        -0.999999999999999,
        -4.3711390063094768e-08,
        0,
        0,
        0,
        0,
        1
      ],
      "name": "Collada visual scene group"
    },
    {
      "children": [
        4,
        5,
        6,
        7,
        8
      ],
      "name": "Cube.000"
    },
    {
      "mesh": 0,
      "name": "defaultMaterial"
    },
    {
      "mesh": 1,
      "name": "defaultMaterial"
    },
    {
      "mesh": 2,
      "name": "defaultMaterial"
    },
    {
      "mesh": 3,
      "name": "defaultMaterial"
    },
    {
      "mesh": 4,
      "name": "defaultMaterial"
    }
  ],
  "samplers": [
    {
      "magFilter": 9729,
      "minFilter": 9987,
      "wrapS": 10497,
      "wrapT": 10497
    }
  ],
  "scene": 0,
  "scenes": [
    {
      "name": "OSG_Scene",
      "nodes": [
        0
      ]
    }
  ],
  "textures": [
    {
      "sampler": 0,
      "source": 0
    },
    {
      "sampler": 0,
      "source": 1
    },
    {
      "sampler": 0,
      "source": 2
    },
    {
      "sampler": 0,
      "source": 3
    },
    {
      "sampler": 0,
      "source": 4
    },
    {
      "sampler": 0,
      "source": 5
    },
    {
      "sampler": 0,
      "source": 6
    },
    {
      "sampler": 0,
      "source": 7
    },
    {
      "sampler": 0,
      "source": 8
    },
    {
      "sampler": 0,
      "source": 9
    },
    {
      "sampler": 0,
      "source": 10
    },
    {
      "sampler": 0,
      "source": 11
    },
    {
      "sampler": 0,
      "source": 12
    },
    {
      "sampler": 0,
      "source": 13
    },
    {
      "sampler": 0,
      "source": 14
    },
    {
      "sampler": 0,
      "source": 15
    },
    {
      "sampler": 0,
      "source": 16
    },
    {
      "sampler": 0,
      "source": 17
    },
    {
      "sampler": 0,
      "source": 18
    }
  ]
}

