{
  "accessors": [
    {
      "bufferView": 2,
      "componentType": 5126,
      "count": 7040,
      "max": [
        8.0837802886962891,
        1.5753684043884277,
        1.2860922813415527
      ],
      "min": [
        -8.0837802886962891,
        -3.2532439231872559,
        -13.402843475341797
      ],
      "type": "VEC3"
    },
    {
      "bufferView": 2,
      "byteOffset": 84480,
      "componentType": 5126,
      "count": 7040,
      "max": [
        0.99993491172790527,
        1,
        1
      ],
      "min": [
        -0.99993491172790527,
        -1,
        -1
      ],
      "type": "VEC3"
    },
    {
      "bufferView": 3,
      "componentType": 5126,
      "count": 7040,
      "max": [
        1,
        0.99993628263473511,
        0.99999111890792847,
        1
      ],
      "min": [
        -1,
        -0.99993628263473511,
        -0.99999111890792847,
        -1
      ],
      "type": "VEC4"
    },
    {
      "bufferView": 1,
      "componentType": 5126,
      "count": 7040,
      "max": [
        0.9919964075088501,
        0.99310934543609619
      ],
      "min": [
        0.0058525204658508301,
        0.0061632059514522552
      ],
      "type": "VEC2"
    },
    {
      "bufferView": 1,
      "byteOffset": 56320,
      "componentType": 5126,
      "count": 7040,
      "max": [
        0.9919964075088501,
        0.99310934543609619
      ],
      "min": [
        0.0058525204658508301,
        0.0061632059514522552
      ],
      "type": "VEC2"
    },
    {
      "bufferView": 1,
      "byteOffset": 112640,
      "componentType": 5126,
      "count": 7040,
      "max": [
        0.9919964075088501,
        0.99310934543609619
      ],
      "min": [
        0.0058525204658508301,
        0.0061632059514522552
      ],
      "type": "VEC2"
    },
    {
      "bufferView": 0,
      "componentType": 5125,
      "count": 27936,
      "max": [
        7039
      ],
      "min": [
        0
      ],
      "type": "SCALAR"
    },
    {
      "bufferView": 2,
      "byteOffset": 168960,
      "componentType": 5126,
      "count": 342,
      "max": [
        6.0290217399597168,
        1.4157211780548096,
        0.99794900417327881
      ],
      "min": [
        -6.0290207862854004,
        -3.0754187107086182,
        0.44510993361473083
      ],
      "type": "VEC3"
    },
    {
      "bufferView": 2,
      "byteOffset": 173064,
      "componentType": 5126,
      "count": 342,
      "max": [
        0.27789369225502014,
        0.12031520903110504,
        0.99992036819458008
      ],
      "min": [
        -0.27789372205734253,
        -0.25317609310150146,
        0.95572966337203979
      ],
      "type": "VEC3"
    },
    {
      "bufferView": 3,
      "byteOffset": 112640,
      "componentType": 5126,
      "count": 342,
      "max": [
        0.99999761581420898,
        0.019266471266746521,
        0.27788621187210083,
        1
      ],
      "min": [
        0.96059095859527588,
        -0.019404109567403793,
        -0.27788633108139038,
        1
      ],
      "type": "VEC4"
    },
    {
      "bufferView": 1,
      "byteOffset": 168960,
      "componentType": 5126,
      "count": 342,
      "max": [
        0.98864901065826416,
        0.98667609691619873
      ],
      "min": [
        0.011700332164764404,
        0.013096035458147526
      ],
      "type": "VEC2"
    },
    {
      "bufferView": 1,
      "byteOffset": 171696,
      "componentType": 5126,
      "count": 342,
      "max": [
        0.98864901065826416,
        0.98667609691619873
      ],
      "min": [
        0.011700332164764404,
        0.013096035458147526
      ],
      "type": "VEC2"
    },
    {
      "bufferView": 0,
      "byteOffset": 111744,
      "componentType": 5125,
      "count": 1758,
      "max": [
        341
      ],
      "min": [
        0
      ],
      "type": "SCALAR"
    }
  ],
  "asset": {
    "extras": {
      "author": "Bazaar Reality (https://sketchfab.com/bazaareality)",
      "license": "CC-BY-4.0 (http://creativecommons.org/licenses/by/4.0/)",
      "source": "https://sketchfab.com/models/8d40d62f1f1945ee97a7aa129dcf6278",
      "title": "BZR Black Sunglasses"
    },
    "generator": "Sketchfab-3.54.8-rc1",
    "version": "2.0"
  },
  "bufferViews": [
    {
      "buffer": 0,
      "byteLength": 118776,
      "byteOffset": 0,
      "name": "floatBufferViews",
      "target": 34963
    },
    {
      "buffer": 0,
      "byteLength": 174432,
      "byteOffset": 118776,
      "byteStride": 8,
      "name": "floatBufferViews",
      "target": 34962
    },
    {
      "buffer": 0,
      "byteLength": 177168,
      "byteOffset": 293208,
      "byteStride": 12,
      "name": "floatBufferViews",
      "target": 34962
    },
    {
      "buffer": 0,
      "byteLength": 118112,
      "byteOffset": 470376,
      "byteStride": 16,
      "name": "floatBufferViews",
      "target": 34962
    }
  ],
  "buffers": [
    {
      "byteLength": 588488,
      "uri": "scene.bin"
    }
  ],
  "images": [
    {
      "uri": "textures/BZR_Classic_Black_Lens_Mat_baseColor.jpeg"
    },
    {
      "uri": "textures/BZR_Classic_Black_Frame_Mat_baseColor.png"
    }
  ],
  "materials": [
    {
      "alphaMode": "BLEND",
      "doubleSided": true,
      "emissiveFactor": [
        0,
        0,
        0
      ],
      "name": "BZR_Classic_Black_Frame_Mat",
      "pbrMetallicRoughness": {
        "baseColorFactor": [
          1,
          1,
          1,
          1
        ],
        "baseColorTexture": {
          "index": 1,
          "texCoord": 0
        },
        "metallicFactor": 0,
        "roughnessFactor": 0.90188844830000003
      }
    },
    {
      "doubleSided": true,
      "emissiveFactor": [
        0,
        0,
        0
      ],
      "name": "BZR_Classic_Black_Lens_Mat",
      "pbrMetallicRoughness": {
        "baseColorFactor": [
          0,
          0,
          0,
          1
        ],
        "baseColorTexture": {
          "index": 0,
          "texCoord": 0
        },
        "metallicFactor": 0,
        "roughnessFactor": 0.90221350960000002
      }
    }
  ],
  "meshes": [
    {
      "name": "BZR_Classic_Black_Frame_NoLogo_BZR_Classic_Black_Frame_Mat_0",
      "primitives": [
        {
          "attributes": {
            "NORMAL": 1,
            "POSITION": 0,
            "TANGENT": 2,
            "TEXCOORD_0": 3,
            "TEXCOORD_1": 4,
            "TEXCOORD_2": 5
          },
          "indices": 6,
          "material": 0,
          "mode": 4
        }
      ]
    },
    {
      "name": "BZR_Classic_Black_Lens_BZR_Classic_Black_Lens_Mat_0",
      "primitives": [
        {
          "attributes": {
            "NORMAL": 8,
            "POSITION": 7,
            "TANGENT": 9,
            "TEXCOORD_0": 10,
            "TEXCOORD_1": 11
          },
          "indices": 12,
          "material": 1,
          "mode": 4
        }
      ]
    }
  ],
  "nodes": [
    {
      "children": [
        1
      ],
      "name": "RootNode (gltf orientation matrix)",
      "rotation": [
        -0.70710678118654746,
        -0,
        -0,
        0.70710678118654757
      ]
    },
    {
      "children": [
        2
      ],
      "name": "RootNode (model correction matrix)"
    },
    {
      "children": [
        3
      ],
      "matrix": [
        1,
        0,
        0,
        0,
        0,
        0,
        1,
        0,
        0,
        -1,
        0,
        0,
        0,
        0,
        0,
        1
      ],
      "name": "6dd2e96011e14dac98c44d7655f9d2c5.fbx"
    },
    {
      "children": [
        4,
        6
      ],
      "name": "RootNode"
    },
    {
      "children": [
        5
      ],
      "matrix": [
        1.0701743364334106,
        0,
        0,
        0,
        0,
        1.0609131656140349,
        0.1404861750760486,
        0,
        0,
        -0.1404861750760486,
        1.0609131656140349,
        0,
        0,
        3.637505054473877,
        -2.3827910423278809,
        1
      ],
      "name": "BZR_Classic_Black_Frame_NoLogo"
    },
    {
      "mesh": 0,
      "name": "BZR_Classic_Black_Frame_NoLogo_BZR_Classic_Black_Frame_Mat_0"
    },
    {
      "children": [
        7
      ],
      "matrix": [
        1.0701743364334106,
        0,
        0,
        0,
        0,
        1.0609131656140349,
        0.14048617507604855,
        0,
        0,
        -0.14048617507604855,
        1.0609131656140349,
        0,
        0,
        3.637505054473877,
        -2.3827910423278809,
        1
      ],
      "name": "BZR_Classic_Black_Lens"
    },
    {
      "mesh": 1,
      "name": "BZR_Classic_Black_Lens_BZR_Classic_Black_Lens_Mat_0"
    }
  ],
  "samplers": [
    {
      "magFilter": 9729,
      "minFilter": 9987,
      "wrapS": 10497,
      "wrapT": 10497
    }
  ],
  "scene": 0,
  "scenes": [
    {
      "name": "OSG_Scene",
      "nodes": [
        0
      ]
    }
  ],
  "textures": [
    {
      "sampler": 0,
      "source": 0
    },
    {
      "sampler": 0,
      "source": 1
    }
  ]
}

